<svg width="120" height="120" viewBox="0 0 120 120" fill="none" xmlns="http://www.w3.org/2000/svg">
<path opacity="0.4" d="M60 110C79.8823 110 96 108.209 96 106C96 103.791 79.8823 102 60 102C40.1177 102 24 103.791 24 106C24 108.209 40.1177 110 60 110Z" fill="#D4A574"/>
<path d="M48 105C48 95 47.6667 84 47 72C46.3333 60 46.3333 48 47 36C48.3333 40 49.3333 46 50 54C50.6667 66 51.3333 78 52 90C52.6667 100 52.6667 105 52 105H48Z" fill="#8B6F47"/>
<path opacity="0.9" d="M52 105C52.6667 95 53.3333 84 54 72C54.6667 60 55.3333 48 56 36C57.3333 40 58.3333 46 59 54C59.6667 66 60.3333 78 61 90C61.6667 100 65.3333 105 72 105H52Z" fill="#8B6F47"/>
<path d="M30 65C41.0457 65 50 56.0457 50 45C50 33.9543 41.0457 25 30 25C18.9543 25 10 33.9543 10 45C10 56.0457 18.9543 65 30 65Z" fill="#2C473E"/>
<path d="M90 65C101.046 65 110 56.0457 110 45C110 33.9543 101.046 25 90 25C78.9543 25 70 33.9543 70 45C70 56.0457 78.9543 65 90 65Z" fill="#2C473E"/>
<path d="M45 74C57.1503 74 67 64.1503 67 52C67 39.8497 57.1503 30 45 30C32.8497 30 23 39.8497 23 52C23 64.1503 32.8497 74 45 74Z" fill="#3B6054"/>
<path d="M75 74C87.1503 74 97 64.1503 97 52C97 39.8497 87.1503 30 75 30C62.8497 30 53 39.8497 53 52C53 64.1503 62.8497 74 75 74Z" fill="#3B6054"/>
<path d="M35 59C48.2548 59 59 48.2548 59 35C59 21.7452 48.2548 11 35 11C21.7452 11 11 21.7452 11 35C11 48.2548 21.7452 59 35 59Z" fill="#3B6054"/>
<path d="M85 59C98.2548 59 109 48.2548 109 35C109 21.7452 98.2548 11 85 11C71.7452 11 61 21.7452 61 35C61 48.2548 71.7452 59 85 59Z" fill="#3B6054"/>
<path d="M60 56C75.464 56 88 43.464 88 28C88 12.536 75.464 0 60 0C44.536 0 32 12.536 32 28C32 43.464 44.536 56 60 56Z" fill="#6A8E4E"/>
<path d="M50 64C64.3594 64 76 52.3594 76 38C76 23.6406 64.3594 12 50 12C35.6406 12 24 23.6406 24 38C24 52.3594 35.6406 64 50 64Z" fill="#6A8E4E"/>
<path d="M70 64C84.3594 64 96 52.3594 96 38C96 23.6406 84.3594 12 70 12C55.6406 12 44 23.6406 44 38C44 52.3594 55.6406 64 70 64Z" fill="#6A8E4E"/>
<path d="M60 72C73.2548 72 84 61.2548 84 48C84 34.7452 73.2548 24 60 24C46.7452 24 36 34.7452 36 48C36 61.2548 46.7452 72 60 72Z" fill="#3B6054"/>
<path d="M60 57C72.1503 57 82 47.1503 82 35C82 22.8497 72.1503 13 60 13C47.8497 13 38 22.8497 38 35C38 47.1503 47.8497 57 60 57Z" fill="#6A8E4E"/>
<path d="M48 46C57.9411 46 66 37.9411 66 28C66 18.0589 57.9411 10 48 10C38.0589 10 30 18.0589 30 28C30 37.9411 38.0589 46 48 46Z" fill="#6A8E4E"/>
<path d="M72 46C81.9411 46 90 37.9411 90 28C90 18.0589 81.9411 10 72 10C62.0589 10 54 18.0589 54 28C54 37.9411 62.0589 46 72 46Z" fill="#6A8E4E"/>
<path d="M35 46.5C37.4853 46.5 39.5 44.4853 39.5 42C39.5 39.5147 37.4853 37.5 35 37.5C32.5147 37.5 30.5 39.5147 30.5 42C30.5 44.4853 32.5147 46.5 35 46.5Z" fill="#E85D4A"/>
<path opacity="0.7" d="M33 41.8C33.9941 41.8 34.7999 40.9941 34.7999 40C34.7999 39.0059 33.9941 38.2 33 38.2C32.0058 38.2 31.2 39.0059 31.2 40C31.2 40.9941 32.0058 41.8 33 41.8Z" fill="#FFB299"/>
<path d="M88 44.5C90.4853 44.5 92.5 42.4853 92.5 40C92.5 37.5147 90.4853 35.5 88 35.5C85.5147 35.5 83.5 37.5147 83.5 40C83.5 42.4853 85.5147 44.5 88 44.5Z" fill="#F07A4F"/>
<path opacity="0.7" d="M86 39.8C86.9941 39.8 87.8 38.9941 87.8 38C87.8 37.0059 86.9941 36.2 86 36.2C85.0059 36.2 84.2 37.0059 84.2 38C84.2 38.9941 85.0059 39.8 86 39.8Z" fill="#FFB299"/>
<path d="M45 34.5C47.4853 34.5 49.5 32.4853 49.5 30C49.5 27.5147 47.4853 25.5 45 25.5C42.5147 25.5 40.5 27.5147 40.5 30C40.5 32.4853 42.5147 34.5 45 34.5Z" fill="#E85D4A"/>
<path opacity="0.7" d="M43 29.8C43.9941 29.8 44.7999 28.9941 44.7999 28C44.7999 27.0059 43.9941 26.2 43 26.2C42.0058 26.2 41.2 27.0059 41.2 28C41.2 28.9941 42.0058 29.8 43 29.8Z" fill="#FFB299"/>
<path d="M75 32.5C77.4853 32.5 79.5 30.4853 79.5 28C79.5 25.5147 77.4853 23.5 75 23.5C72.5147 23.5 70.5 25.5147 70.5 28C70.5 30.4853 72.5147 32.5 75 32.5Z" fill="#F07A4F"/>
<path opacity="0.7" d="M73 27.8C73.9941 27.8 74.8 26.9941 74.8 26C74.8 25.0059 73.9941 24.2 73 24.2C72.0059 24.2 71.2 25.0059 71.2 26C71.2 26.9941 72.0059 27.8 73 27.8Z" fill="#FFB299"/>
<path d="M28 54C30.2091 54 32 52.2091 32 50C32 47.7909 30.2091 46 28 46C25.7909 46 24 47.7909 24 50C24 52.2091 25.7909 54 28 54Z" fill="#E85D4A"/>
<path opacity="0.7" d="M26 49.5C26.8284 49.5 27.5 48.8284 27.5 48C27.5 47.1716 26.8284 46.5 26 46.5C25.1716 46.5 24.5 47.1716 24.5 48C24.5 48.8284 25.1716 49.5 26 49.5Z" fill="#FFB299"/>
<path d="M92 52C94.2091 52 96 50.2091 96 48C96 45.7909 94.2091 44 92 44C89.7909 44 88 45.7909 88 48C88 50.2091 89.7909 52 92 52Z" fill="#F07A4F"/>
<path opacity="0.7" d="M90 47.5C90.8284 47.5 91.5 46.8284 91.5 46C91.5 45.1716 90.8284 44.5 90 44.5C89.1716 44.5 88.5 45.1716 88.5 46C88.5 46.8284 89.1716 47.5 90 47.5Z" fill="#FFB299"/>
<path d="M38 42C40.2091 42 42 40.2091 42 38C42 35.7909 40.2091 34 38 34C35.7909 34 34 35.7909 34 38C34 40.2091 35.7909 42 38 42Z" fill="#F07A4F"/>
<path opacity="0.7" d="M36 37.5C36.8284 37.5 37.5 36.8284 37.5 36C37.5 35.1716 36.8284 34.5 36 34.5C35.1716 34.5 34.5 35.1716 34.5 36C34.5 36.8284 35.1716 37.5 36 37.5Z" fill="#FFB299"/>
<path d="M82 40C84.2091 40 86 38.2091 86 36C86 33.7909 84.2091 32 82 32C79.7909 32 78 33.7909 78 36C78 38.2091 79.7909 40 82 40Z" fill="#E85D4A"/>
<path opacity="0.7" d="M80 35.5C80.8284 35.5 81.5 34.8284 81.5 34C81.5 33.1716 80.8284 32.5 80 32.5C79.1716 32.5 78.5 33.1716 78.5 34C78.5 34.8284 79.1716 35.5 80 35.5Z" fill="#FFB299"/>
<path d="M52 42.5C54.4853 42.5 56.5 40.4853 56.5 38C56.5 35.5147 54.4853 33.5 52 33.5C49.5147 33.5 47.5 35.5147 47.5 38C47.5 40.4853 49.5147 42.5 52 42.5Z" fill="#F07A4F"/>
<path opacity="0.7" d="M50 37.8C50.9941 37.8 51.7999 36.9941 51.7999 36C51.7999 35.0059 50.9941 34.2 50 34.2C49.0058 34.2 48.2 35.0059 48.2 36C48.2 36.9941 49.0058 37.8 50 37.8Z" fill="#FFB299"/>
<path d="M68 40.5C70.4853 40.5 72.5 38.4853 72.5 36C72.5 33.5147 70.4853 31.5 68 31.5C65.5147 31.5 63.5 33.5147 63.5 36C63.5 38.4853 65.5147 40.5 68 40.5Z" fill="#E85D4A"/>
<path opacity="0.7" d="M66 35.8C66.9941 35.8 67.8 34.9941 67.8 34C67.8 33.0059 66.9941 32.2 66 32.2C65.0058 32.2 64.2 33.0059 64.2 34C64.2 34.9941 65.0058 35.8 66 35.8Z" fill="#FFB299"/>
<path d="M60 30C62.7614 30 65 27.7614 65 25C65 22.2386 62.7614 20 60 20C57.2386 20 55 22.2386 55 25C55 27.7614 57.2386 30 60 30Z" fill="#E85D4A"/>
<path opacity="0.7" d="M58 25C59.1046 25 60 24.1046 60 23C60 21.8954 59.1046 21 58 21C56.8954 21 56 21.8954 56 23C56 24.1046 56.8954 25 58 25Z" fill="#FFB299"/>
<path d="M42 49C44.2091 49 46 47.2091 46 45C46 42.7909 44.2091 41 42 41C39.7909 41 38 42.7909 38 45C38 47.2091 39.7909 49 42 49Z" fill="#F07A4F"/>
<path opacity="0.7" d="M40 44.5C40.8284 44.5 41.5 43.8284 41.5 43C41.5 42.1716 40.8284 41.5 40 41.5C39.1716 41.5 38.5 42.1716 38.5 43C38.5 43.8284 39.1716 44.5 40 44.5Z" fill="#FFB299"/>
<path d="M78 48C80.2091 48 82 46.2091 82 44C82 41.7909 80.2091 40 78 40C75.7909 40 74 41.7909 74 44C74 46.2091 75.7909 48 78 48Z" fill="#E85D4A"/>
<path opacity="0.7" d="M76 43.5C76.8284 43.5 77.5 42.8284 77.5 42C77.5 41.1716 76.8284 40.5 76 40.5C75.1716 40.5 74.5 41.1716 74.5 42C74.5 42.8284 75.1716 43.5 76 43.5Z" fill="#FFB299"/>
<path d="M50 56C52.2091 56 54 54.2091 54 52C54 49.7909 52.2091 48 50 48C47.7909 48 46 49.7909 46 52C46 54.2091 47.7909 56 50 56Z" fill="#E85D4A"/>
<path opacity="0.7" d="M48 51.5C48.8284 51.5 49.5 50.8284 49.5 50C49.5 49.1716 48.8284 48.5 48 48.5C47.1716 48.5 46.5 49.1716 46.5 50C46.5 50.8284 47.1716 51.5 48 51.5Z" fill="#FFB299"/>
<path d="M70 56C72.2091 56 74 54.2091 74 52C74 49.7909 72.2091 48 70 48C67.7909 48 66 49.7909 66 52C66 54.2091 67.7909 56 70 56Z" fill="#F07A4F"/>
<path opacity="0.7" d="M68 51.5C68.8284 51.5 69.5 50.8284 69.5 50C69.5 49.1716 68.8284 48.5 68 48.5C67.1716 48.5 66.5 49.1716 66.5 50C66.5 50.8284 67.1716 51.5 68 51.5Z" fill="#FFB299"/>
<path d="M60 44.5C62.4853 44.5 64.5 42.4853 64.5 40C64.5 37.5147 62.4853 35.5 60 35.5C57.5147 35.5 55.5 37.5147 55.5 40C55.5 42.4853 57.5147 44.5 60 44.5Z" fill="#F07A4F"/>
<path opacity="0.7" d="M58 39.8C58.9941 39.8 59.7999 38.9941 59.7999 38C59.7999 37.0059 58.9941 36.2 58 36.2C57.0058 36.2 56.2 37.0059 56.2 38C56.2 38.9941 57.0058 39.8 58 39.8Z" fill="#FFB299"/>
<path d="M55 54C57.2091 54 59 52.2091 59 50C59 47.7909 57.2091 46 55 46C52.7909 46 51 47.7909 51 50C51 52.2091 52.7909 54 55 54Z" fill="#E85D4A"/>
<path opacity="0.7" d="M53 49.5C53.8284 49.5 54.5 48.8284 54.5 48C54.5 47.1716 53.8284 46.5 53 46.5C52.1716 46.5 51.5 47.1716 51.5 48C51.5 48.8284 52.1716 49.5 53 49.5Z" fill="#FFB299"/>
<path d="M65 56C67.2091 56 69 54.2091 69 52C69 49.7909 67.2091 48 65 48C62.7909 48 61 49.7909 61 52C61 54.2091 62.7909 56 65 56Z" fill="#F07A4F"/>
<path opacity="0.7" d="M63 51.5C63.8284 51.5 64.5 50.8284 64.5 50C64.5 49.1716 63.8284 48.5 63 48.5C62.1716 48.5 61.5 49.1716 61.5 50C61.5 50.8284 62.1716 51.5 63 51.5Z" fill="#FFB299"/>
<path d="M55 36C57.2091 36 59 34.2091 59 32C59 29.7909 57.2091 28 55 28C52.7909 28 51 29.7909 51 32C51 34.2091 52.7909 36 55 36Z" fill="#E85D4A"/>
<path opacity="0.7" d="M53 31.5C53.8284 31.5 54.5 30.8284 54.5 30C54.5 29.1716 53.8284 28.5 53 28.5C52.1716 28.5 51.5 29.1716 51.5 30C51.5 30.8284 52.1716 31.5 53 31.5Z" fill="#FFB299"/>
<path d="M65 36C67.2091 36 69 34.2091 69 32C69 29.7909 67.2091 28 65 28C62.7909 28 61 29.7909 61 32C61 34.2091 62.7909 36 65 36Z" fill="#F07A4F"/>
<path opacity="0.7" d="M63 31.5C63.8284 31.5 64.5 30.8284 64.5 30C64.5 29.1716 63.8284 28.5 63 28.5C62.1716 28.5 61.5 29.1716 61.5 30C61.5 30.8284 62.1716 31.5 63 31.5Z" fill="#FFB299"/>
<g opacity="0.85">
<path d="M20 28L21.5 32L25.5 33.5L21.5 35L20 39L18.5 35L14.5 33.5L18.5 32L20 28Z" fill="#FFD700"/>
<path d="M100 32L101 35L104 36L101 37L100 40L99 37L96 36L99 35L100 32Z" fill="#FFD700"/>
<path d="M60 12L61.5 16L65.5 17.5L61.5 19L60 23L58.5 19L54.5 17.5L58.5 16L60 12Z" fill="#FFED4E"/>
<path opacity="0.8" d="M15 55L16 57L18 58L16 59L15 61L14 59L12 58L14 57L15 55Z" fill="#FFD700"/>
<path opacity="0.8" d="M105 52L106 54L108 55L106 56L105 58L104 56L102 55L104 54L105 52Z" fill="#FFED4E"/>
</g>
</svg>
