<svg width="120" height="120" viewBox="0 0 120 120" fill="none" xmlns="http://www.w3.org/2000/svg">
<path opacity="0.4" d="M60 110C79.8823 110 96 108.209 96 106C96 103.791 79.8823 102 60 102C40.1177 102 24 103.791 24 106C24 108.209 40.1177 110 60 110Z" fill="#D4A574"/>
<path d="M48 105C48 95 47.6667 84 47 72C46.3333 60 46.3333 48 47 36C48.3333 40 49.3333 46 50 54C50.6667 66 51.3333 78 52 90C52.6667 100 52.6667 105 52 105H48Z" fill="#8B6F47"/>
<path opacity="0.9" d="M52 105C52.6667 95 53.3333 84 54 72C54.6667 60 55.3333 48 56 36C57.3333 40 58.3333 46 59 54C59.6667 66 60.3333 78 61 90C61.6667 100 65.3333 105 72 105H52Z" fill="#8B6F47"/>
<path d="M30 65C41.0457 65 50 56.0457 50 45C50 33.9543 41.0457 25 30 25C18.9543 25 10 33.9543 10 45C10 56.0457 18.9543 65 30 65Z" fill="#2C473E"/>
<path d="M90 65C101.046 65 110 56.0457 110 45C110 33.9543 101.046 25 90 25C78.9543 25 70 33.9543 70 45C70 56.0457 78.9543 65 90 65Z" fill="#2C473E"/>
<path d="M45 74C57.1503 74 67 64.1503 67 52C67 39.8497 57.1503 30 45 30C32.8497 30 23 39.8497 23 52C23 64.1503 32.8497 74 45 74Z" fill="#6A8E4E"/>
<path d="M75 74C87.1503 74 97 64.1503 97 52C97 39.8497 87.1503 30 75 30C62.8497 30 53 39.8497 53 52C53 64.1503 62.8497 74 75 74Z" fill="#6A8E4E"/>
<path d="M35 59C48.2548 59 59 48.2548 59 35C59 21.7452 48.2548 11 35 11C21.7452 11 11 21.7452 11 35C11 48.2548 21.7452 59 35 59Z" fill="#3B6054"/>
<path d="M85 59C98.2548 59 109 48.2548 109 35C109 21.7452 98.2548 11 85 11C71.7452 11 61 21.7452 61 35C61 48.2548 71.7452 59 85 59Z" fill="#3B6054"/>
<path d="M60 56C75.464 56 88 43.464 88 28C88 12.536 75.464 0 60 0C44.536 0 32 12.536 32 28C32 43.464 44.536 56 60 56Z" fill="#80A960"/>
<path d="M50 64C64.3594 64 76 52.3594 76 38C76 23.6406 64.3594 12 50 12C35.6406 12 24 23.6406 24 38C24 52.3594 35.6406 64 50 64Z" fill="#80A960"/>
<path d="M70 64C84.3594 64 96 52.3594 96 38C96 23.6406 84.3594 12 70 12C55.6406 12 44 23.6406 44 38C44 52.3594 55.6406 64 70 64Z" fill="#80A960"/>
<path d="M60 72C73.2548 72 84 61.2548 84 48C84 34.7452 73.2548 24 60 24C46.7452 24 36 34.7452 36 48C36 61.2548 46.7452 72 60 72Z" fill="#6A8E4E"/>
<path d="M60 57C72.1503 57 82 47.1503 82 35C82 22.8497 72.1503 13 60 13C47.8497 13 38 22.8497 38 35C38 47.1503 47.8497 57 60 57Z" fill="#80A960"/>
<path d="M48 46C57.9411 46 66 37.9411 66 28C66 18.0589 57.9411 10 48 10C38.0589 10 30 18.0589 30 28C30 37.9411 38.0589 46 48 46Z" fill="#80A960"/>
<path d="M72 46C81.9411 46 90 37.9411 90 28C90 18.0589 81.9411 10 72 10C62.0589 10 54 18.0589 54 28C54 37.9411 62.0589 46 72 46Z" fill="#80A960"/>
</svg>
