<svg width="120" height="120" viewBox="0 0 120 120" fill="none" xmlns="http://www.w3.org/2000/svg">
<path opacity="0.4" d="M60 110C79.8823 110 96 108.209 96 106C96 103.791 79.8823 102 60 102C40.1177 102 24 103.791 24 106C24 108.209 40.1177 110 60 110Z" fill="#D4A574"/>
<path d="M48 105C48 95 47.6667 84 47 72C46.3333 60 46.3333 48 47 36C48.3333 40 49.3333 46 50 54C50.6667 66 51.3333 78 52 90C52.6667 100 52.6667 105 52 105H48Z" fill="#8B6F47"/>
<path opacity="0.9" d="M52 105C52.6667 95 53.3333 84 54 72C54.6667 60 55.3333 48 56 36C57.3333 40 58.3333 46 59 54C59.6667 66 60.3333 78 61 90C61.6667 100 65.3333 105 72 105H52Z" fill="#8B6F47"/>
<path d="M30 65C41.0457 65 50 56.0457 50 45C50 33.9543 41.0457 25 30 25C18.9543 25 10 33.9543 10 45C10 56.0457 18.9543 65 30 65Z" fill="#2C473E"/>
<path d="M90 65C101.046 65 110 56.0457 110 45C110 33.9543 101.046 25 90 25C78.9543 25 70 33.9543 70 45C70 56.0457 78.9543 65 90 65Z" fill="#2C473E"/>
<path d="M45 74C57.1503 74 67 64.1503 67 52C67 39.8497 57.1503 30 45 30C32.8497 30 23 39.8497 23 52C23 64.1503 32.8497 74 45 74Z" fill="#3B6054"/>
<path d="M75 74C87.1503 74 97 64.1503 97 52C97 39.8497 87.1503 30 75 30C62.8497 30 53 39.8497 53 52C53 64.1503 62.8497 74 75 74Z" fill="#3B6054"/>
<path d="M35 59C48.2548 59 59 48.2548 59 35C59 21.7452 48.2548 11 35 11C21.7452 11 11 21.7452 11 35C11 48.2548 21.7452 59 35 59Z" fill="#3B6054"/>
<path d="M85 59C98.2548 59 109 48.2548 109 35C109 21.7452 98.2548 11 85 11C71.7452 11 61 21.7452 61 35C61 48.2548 71.7452 59 85 59Z" fill="#3B6054"/>
<path d="M60 56C75.464 56 88 43.464 88 28C88 12.536 75.464 0 60 0C44.536 0 32 12.536 32 28C32 43.464 44.536 56 60 56Z" fill="#6A8E4E"/>
<path d="M50 64C64.3594 64 76 52.3594 76 38C76 23.6406 64.3594 12 50 12C35.6406 12 24 23.6406 24 38C24 52.3594 35.6406 64 50 64Z" fill="#6A8E4E"/>
<path d="M70 64C84.3594 64 96 52.3594 96 38C96 23.6406 84.3594 12 70 12C55.6406 12 44 23.6406 44 38C44 52.3594 55.6406 64 70 64Z" fill="#6A8E4E"/>
<path d="M60 72C73.2548 72 84 61.2548 84 48C84 34.7452 73.2548 24 60 24C46.7452 24 36 34.7452 36 48C36 61.2548 46.7452 72 60 72Z" fill="#3B6054"/>
<path d="M60 57C72.1503 57 82 47.1503 82 35C82 22.8497 72.1503 13 60 13C47.8497 13 38 22.8497 38 35C38 47.1503 47.8497 57 60 57Z" fill="#6A8E4E"/>
<path d="M48 46C57.9411 46 66 37.9411 66 28C66 18.0589 57.9411 10 48 10C38.0589 10 30 18.0589 30 28C30 37.9411 38.0589 46 48 46Z" fill="#6A8E4E"/>
<path d="M72 46C81.9411 46 90 37.9411 90 28C90 18.0589 81.9411 10 72 10C62.0589 10 54 18.0589 54 28C54 37.9411 62.0589 46 72 46Z" fill="#6A8E4E"/>
<g opacity="0.95">
<path d="M35 45C36.6569 45 38 43.6569 38 42C38 40.3431 36.6569 39 35 39C33.3431 39 32 40.3431 32 42C32 43.6569 33.3431 45 35 45Z" fill="#FFB5D5"/>
<path opacity="0.8" d="M33 42.2C33.6628 42.2 34.2001 41.6627 34.2001 41C34.2001 40.3372 33.6628 39.8 33 39.8C32.3373 39.8 31.8 40.3372 31.8 41C31.8 41.6627 32.3373 42.2 33 42.2Z" fill="white"/>
<path d="M88 43C89.6569 43 91 41.6569 91 40C91 38.3431 89.6569 37 88 37C86.3431 37 85 38.3431 85 40C85 41.6569 86.3431 43 88 43Z" fill="#FFD5E5"/>
<path opacity="0.8" d="M86 40.2C86.6628 40.2 87.2 39.6627 87.2 39C87.2 38.3372 86.6628 37.8 86 37.8C85.3373 37.8 84.8 38.3372 84.8 39C84.8 39.6627 85.3373 40.2 86 40.2Z" fill="white"/>
<path d="M45 33C46.6569 33 48 31.6569 48 30C48 28.3431 46.6569 27 45 27C43.3431 27 42 28.3431 42 30C42 31.6569 43.3431 33 45 33Z" fill="#FFB5D5"/>
<path opacity="0.8" d="M43 30.2C43.6628 30.2 44.2001 29.6627 44.2001 29C44.2001 28.3372 43.6628 27.8 43 27.8C42.3373 27.8 41.8 28.3372 41.8 29C41.8 29.6627 42.3373 30.2 43 30.2Z" fill="white"/>
<path d="M75 31C76.6569 31 78 29.6569 78 28C78 26.3431 76.6569 25 75 25C73.3431 25 72 26.3431 72 28C72 29.6569 73.3431 31 75 31Z" fill="#FFD5E5"/>
<path opacity="0.8" d="M73 28.2C73.6628 28.2 74.2 27.6627 74.2 27C74.2 26.3372 73.6628 25.8 73 25.8C72.3373 25.8 71.8 26.3372 71.8 27C71.8 27.6627 72.3373 28.2 73 28.2Z" fill="white"/>
<path d="M28 52.5C29.3807 52.5 30.5 51.3807 30.5 50C30.5 48.6193 29.3807 47.5 28 47.5C26.6193 47.5 25.5 48.6193 25.5 50C25.5 51.3807 26.6193 52.5 28 52.5Z" fill="#FFB5D5"/>
<path opacity="0.8" d="M26 50C26.5523 50 27 49.5523 27 49C27 48.4477 26.5523 48 26 48C25.4477 48 25 48.4477 25 49C25 49.5523 25.4477 50 26 50Z" fill="white"/>
<path d="M92 50.5C93.3807 50.5 94.5 49.3807 94.5 48C94.5 46.6193 93.3807 45.5 92 45.5C90.6193 45.5 89.5 46.6193 89.5 48C89.5 49.3807 90.6193 50.5 92 50.5Z" fill="#FFD5E5"/>
<path opacity="0.8" d="M90 48C90.5523 48 91 47.5523 91 47C91 46.4477 90.5523 46 90 46C89.4477 46 89 46.4477 89 47C89 47.5523 89.4477 48 90 48Z" fill="white"/>
<path d="M38 40.5C39.3807 40.5 40.5 39.3807 40.5 38C40.5 36.6193 39.3807 35.5 38 35.5C36.6193 35.5 35.5 36.6193 35.5 38C35.5 39.3807 36.6193 40.5 38 40.5Z" fill="#FFD5E5"/>
<path opacity="0.8" d="M36 38C36.5523 38 37 37.5523 37 37C37 36.4477 36.5523 36 36 36C35.4477 36 35 36.4477 35 37C35 37.5523 35.4477 38 36 38Z" fill="white"/>
<path d="M82 38.5C83.3807 38.5 84.5 37.3807 84.5 36C84.5 34.6193 83.3807 33.5 82 33.5C80.6193 33.5 79.5 34.6193 79.5 36C79.5 37.3807 80.6193 38.5 82 38.5Z" fill="#FFB5D5"/>
<path opacity="0.8" d="M80 36C80.5523 36 81 35.5523 81 35C81 34.4477 80.5523 34 80 34C79.4477 34 79 34.4477 79 35C79 35.5523 79.4477 36 80 36Z" fill="white"/>
</g>
<g opacity="0.95">
<path d="M52 41C53.6569 41 55 39.6569 55 38C55 36.3431 53.6569 35 52 35C50.3431 35 49 36.3431 49 38C49 39.6569 50.3431 41 52 41Z" fill="#FFD5E5"/>
<path opacity="0.8" d="M50 38.2C50.6628 38.2 51.2001 37.6627 51.2001 37C51.2001 36.3372 50.6628 35.8 50 35.8C49.3373 35.8 48.8 36.3372 48.8 37C48.8 37.6627 49.3373 38.2 50 38.2Z" fill="white"/>
<path d="M68 39C69.6569 39 71 37.6569 71 36C71 34.3431 69.6569 33 68 33C66.3431 33 65 34.3431 65 36C65 37.6569 66.3431 39 68 39Z" fill="#FFB5D5"/>
<path opacity="0.8" d="M66 36.2C66.6628 36.2 67.2 35.6627 67.2 35C67.2 34.3372 66.6628 33.8 66 33.8C65.3373 33.8 64.8 34.3372 64.8 35C64.8 35.6627 65.3373 36.2 66 36.2Z" fill="white"/>
<path d="M60 28.5C61.933 28.5 63.5 26.933 63.5 25C63.5 23.067 61.933 21.5 60 21.5C58.067 21.5 56.5 23.067 56.5 25C56.5 26.933 58.067 28.5 60 28.5Z" fill="#FFB5D5"/>
<path opacity="0.8" d="M58 25.3C58.7179 25.3 59.2999 24.718 59.2999 24C59.2999 23.282 58.7179 22.7 58 22.7C57.282 22.7 56.7 23.282 56.7 24C56.7 24.718 57.282 25.3 58 25.3Z" fill="white"/>
<path d="M42 47.5C43.3807 47.5 44.5 46.3807 44.5 45C44.5 43.6193 43.3807 42.5 42 42.5C40.6193 42.5 39.5 43.6193 39.5 45C39.5 46.3807 40.6193 47.5 42 47.5Z" fill="#FFD5E5"/>
<path opacity="0.8" d="M40 45C40.5523 45 41 44.5523 41 44C41 43.4477 40.5523 43 40 43C39.4477 43 39 43.4477 39 44C39 44.5523 39.4477 45 40 45Z" fill="white"/>
<path d="M78 46.5C79.3807 46.5 80.5 45.3807 80.5 44C80.5 42.6193 79.3807 41.5 78 41.5C76.6193 41.5 75.5 42.6193 75.5 44C75.5 45.3807 76.6193 46.5 78 46.5Z" fill="#FFB5D5"/>
<path opacity="0.8" d="M76 44C76.5523 44 77 43.5523 77 43C77 42.4477 76.5523 42 76 42C75.4477 42 75 42.4477 75 43C75 43.5523 75.4477 44 76 44Z" fill="white"/>
<path d="M50 54.5C51.3807 54.5 52.5 53.3807 52.5 52C52.5 50.6193 51.3807 49.5 50 49.5C48.6193 49.5 47.5 50.6193 47.5 52C47.5 53.3807 48.6193 54.5 50 54.5Z" fill="#FFB5D5"/>
<path opacity="0.8" d="M48 52C48.5523 52 49 51.5523 49 51C49 50.4477 48.5523 50 48 50C47.4477 50 47 50.4477 47 51C47 51.5523 47.4477 52 48 52Z" fill="white"/>
<path d="M70 54.5C71.3807 54.5 72.5 53.3807 72.5 52C72.5 50.6193 71.3807 49.5 70 49.5C68.6193 49.5 67.5 50.6193 67.5 52C67.5 53.3807 68.6193 54.5 70 54.5Z" fill="#FFD5E5"/>
<path opacity="0.8" d="M68 52C68.5523 52 69 51.5523 69 51C69 50.4477 68.5523 50 68 50C67.4477 50 67 50.4477 67 51C67 51.5523 67.4477 52 68 52Z" fill="white"/>
</g>
<g opacity="0.95">
<path d="M60 43C61.6569 43 63 41.6569 63 40C63 38.3431 61.6569 37 60 37C58.3431 37 57 38.3431 57 40C57 41.6569 58.3431 43 60 43Z" fill="#FFD5E5"/>
<path opacity="0.8" d="M58 40.2C58.6628 40.2 59.2001 39.6627 59.2001 39C59.2001 38.3372 58.6628 37.8 58 37.8C57.3373 37.8 56.8 38.3372 56.8 39C56.8 39.6627 57.3373 40.2 58 40.2Z" fill="white"/>
<path d="M55 52.5C56.3807 52.5 57.5 51.3807 57.5 50C57.5 48.6193 56.3807 47.5 55 47.5C53.6193 47.5 52.5 48.6193 52.5 50C52.5 51.3807 53.6193 52.5 55 52.5Z" fill="#FFB5D5"/>
<path opacity="0.8" d="M53 50C53.5523 50 54 49.5523 54 49C54 48.4477 53.5523 48 53 48C52.4477 48 52 48.4477 52 49C52 49.5523 52.4477 50 53 50Z" fill="white"/>
<path d="M65 54.5C66.3807 54.5 67.5 53.3807 67.5 52C67.5 50.6193 66.3807 49.5 65 49.5C63.6193 49.5 62.5 50.6193 62.5 52C62.5 53.3807 63.6193 54.5 65 54.5Z" fill="#FFD5E5"/>
<path opacity="0.8" d="M63 52C63.5523 52 64 51.5523 64 51C64 50.4477 63.5523 50 63 50C62.4477 50 62 50.4477 62 51C62 51.5523 62.4477 52 63 52Z" fill="white"/>
<path d="M55 34.5C56.3807 34.5 57.5 33.3807 57.5 32C57.5 30.6193 56.3807 29.5 55 29.5C53.6193 29.5 52.5 30.6193 52.5 32C52.5 33.3807 53.6193 34.5 55 34.5Z" fill="#FFB5D5"/>
<path opacity="0.8" d="M53 32C53.5523 32 54 31.5523 54 31C54 30.4477 53.5523 30 53 30C52.4477 30 52 30.4477 52 31C52 31.5523 52.4477 32 53 32Z" fill="white"/>
<path d="M65 34.5C66.3807 34.5 67.5 33.3807 67.5 32C67.5 30.6193 66.3807 29.5 65 29.5C63.6193 29.5 62.5 30.6193 62.5 32C62.5 33.3807 63.6193 34.5 65 34.5Z" fill="#FFD5E5"/>
<path opacity="0.8" d="M63 32C63.5523 32 64 31.5523 64 31C64 30.4477 63.5523 30 63 30C62.4477 30 62 30.4477 62 31C62 31.5523 62.4477 32 63 32Z" fill="white"/>
</g>
</svg>
