<svg width="120" height="120" viewBox="0 0 120 120" fill="none" xmlns="http://www.w3.org/2000/svg">
<path opacity="0.4" d="M60 100C73.2548 100 84 98.2091 84 96C84 93.7909 73.2548 92 60 92C46.7452 92 36 93.7909 36 96C36 98.2091 46.7452 100 60 100Z" fill="#D4A574"/>
<path d="M56 95C56 85 55.6666 75 55 65C54.3333 55 54.6666 46.6667 56 40C57.3333 46.6667 57.6666 55 57 65C57 75 59.3333 85 64 95H56Z" fill="#8B6F47"/>
<path d="M52 60C61.9411 60 70 51.9411 70 42C70 32.0589 61.9411 24 52 24C42.0589 24 34 32.0589 34 42C34 51.9411 42.0589 60 52 60Z" fill="#2C473E"/>
<path d="M68 60C77.9411 60 86 51.9411 86 42C86 32.0589 77.9411 24 68 24C58.0589 24 50 32.0589 50 42C50 51.9411 58.0589 60 68 60Z" fill="#6A8E4E"/>
<path d="M60 52C71.0457 52 80 43.0457 80 32C80 20.9543 71.0457 12 60 12C48.9543 12 40 20.9543 40 32C40 43.0457 48.9543 52 60 52Z" fill="#80A960"/>
<path d="M60 64C68.8366 64 76 56.8366 76 48C76 39.1634 68.8366 32 60 32C51.1634 32 44 39.1634 44 48C44 56.8366 51.1634 64 60 64Z" fill="#3B6054"/>
</svg>
