<svg width="120" height="120" viewBox="0 0 120 120" fill="none" xmlns="http://www.w3.org/2000/svg">
<path opacity="0.4" d="M60 105C76.5685 105 90 103.209 90 101C90 98.7909 76.5685 97 60 97C43.4315 97 30 98.7909 30 101C30 103.209 43.4315 105 60 105Z" fill="#D4A574"/>
<path d="M52 100C52 90 51.6666 79.3333 51 68C50.3333 56 50.6666 45 52 35C53.3333 45 54.6666 56 56 68C57.3333 79.3333 61.3333 90 68 100H52Z" fill="#8B6F47"/>
<path d="M42 60C54.1503 60 64 50.1503 64 38C64 25.8497 54.1503 16 42 16C29.8497 16 20 25.8497 20 38C20 50.1503 29.8497 60 42 60Z" fill="#2C473E"/>
<path d="M78 60C90.1503 60 100 50.1503 100 38C100 25.8497 90.1503 16 78 16C65.8497 16 56 25.8497 56 38C56 50.1503 65.8497 60 78 60Z" fill="#2C473E"/>
<path d="M60 54C74.3594 54 86 42.3594 86 28C86 13.6406 74.3594 2 60 2C45.6406 2 34 13.6406 34 28C34 42.3594 45.6406 54 60 54Z" fill="#6A8E4E"/>
<path d="M35 68C44.9411 68 53 59.9411 53 50C53 40.0589 44.9411 32 35 32C25.0589 32 17 40.0589 17 50C17 59.9411 25.0589 68 35 68Z" fill="#3B6054"/>
<path d="M85 68C94.9411 68 103 59.9411 103 50C103 40.0589 94.9411 32 85 32C75.0589 32 67 40.0589 67 50C67 59.9411 75.0589 68 85 68Z" fill="#3B6054"/>
<path d="M60 72C73.2548 72 84 61.2548 84 48C84 34.7452 73.2548 24 60 24C46.7452 24 36 34.7452 36 48C36 61.2548 46.7452 72 60 72Z" fill="#3B6054"/>
<path d="M60 60C71.0457 60 80 51.0457 80 40C80 28.9543 71.0457 20 60 20C48.9543 20 40 28.9543 40 40C40 51.0457 48.9543 60 60 60Z" fill="#6A8E4E"/>
</svg>
