<svg width="28" height="28" viewBox="0 0 28 28" fill="none" xmlns="http://www.w3.org/2000/svg">
<path fill-rule="evenodd" clip-rule="evenodd" d="M15.9 18.1185C15.4413 19.8318 15.429 21.2608 15.863 22.4055C16.6605 24.5095 19.463 25.115 19.595 25.6665C19.727 26.218 15.863 26.5 13.679 26.5C11.4955 26.5 8.817 26.0835 8.817 25.6665C8.817 25.25 11.359 24.697 12.1315 22.3665C12.5815 21.0078 12.5322 19.4477 11.9835 17.686C11.8468 17.7288 11.7043 17.7504 11.561 17.75C10.9655 17.75 10.4695 17.385 10.3625 16.903C9.9515 17.173 9.4365 17.333 8.878 17.333C7.673 17.333 6.6725 16.587 6.4745 15.606C6.30297 15.6466 6.12727 15.6669 5.951 15.6665C4.8735 15.6665 4 14.9205 4 14C4 13.3785 4.398 12.8365 4.9885 12.55C4.685 12.3605 4.488 12.054 4.488 11.7085C4.48867 11.5878 4.51117 11.4735 4.5555 11.3655C4.221 11.217 4 10.96 4 10.6665C4 10.303 4.341 9.994 4.816 9.88C4.3185 9.575 4 9.107 4 8.5835C4 7.752 4.8015 7.0635 5.8495 6.937C5.60243 6.63798 5.4661 6.26288 5.4635 5.875C5.4635 4.8395 6.446 4 7.6585 4C7.7805 4 7.90017 4.00833 8.0175 4.025C8.31 3.2835 9.131 2.75 10.0975 2.75C10.366 2.75 10.623 2.791 10.861 2.8665C11.026 2.0895 11.823 1.5 12.78 1.5C13.759 1.5 14.57 2.116 14.71 2.9185C15.0675 2.5605 15.6 2.3335 16.195 2.3335C17.2725 2.3335 18.146 3.0795 18.146 4C18.146 4.31 18.0465 4.6005 17.874 4.8495C17.9627 4.83883 18.0533 4.8335 18.146 4.8335C19.149 4.8335 19.976 5.48 20.085 6.3125C20.3919 6.16034 20.73 6.08192 21.0725 6.0835C22.1505 6.0835 23.024 6.8295 23.024 7.75C23.024 8.3775 22.618 8.924 22.018 9.2085C22.618 9.4925 23.024 10.039 23.024 10.6665C23.024 11.2115 22.7175 11.696 22.244 12C22.427 12.209 22.536 12.4685 22.536 12.75C22.5357 12.8583 22.5203 12.9623 22.49 13.062C23.39 13.4885 23.9995 14.3085 23.9995 15.25C23.9995 16.6305 22.6895 17.75 21.0725 17.75C20.6693 17.751 20.2692 17.6792 19.8915 17.538C19.4485 17.926 18.83 18.1665 18.146 18.1665C17.6227 18.171 17.1094 18.0234 16.6685 17.7415C16.4585 17.92 16.195 18.052 15.9 18.1185Z" fill="#6A8E4E"/>
</svg>
